# File created by Blade
# Date/Time:  Tue Apr 07 20:41:02 2015
# Frame Rate: 120.000 fps
#------------------------------------------------------
:FULLY-SPECIFIED
:DEGREES
1422
root 5.551226 34.693542 -4.382241 32.543989 -24.532684 -56.193022
Spine 3.822793 25.194621 38.103045
Head -4.334265 7.430424 10.241188
LeftShoulder -20.165274 23.667345 34.536353
LeftArm 78.623855 -81.123640 -66.911151
LeftForeArm 19.870282 -0.000000 28.991816
LeftHand 12.381101 -0.000000 22.256899
LeftHandThumb1 -26.253704 0.000000 33.147579
RightShoulder -6.825038 35.656329 -30.776486
RightArm 62.160867 77.942087 96.127062
RightForeArm 41.968586 -0.000000 54.447945
RightHand 2.517110 -0.000000 28.682059
RightHandThumb1 -24.326973 -0.000000 -32.862282
LeftUpLeg -10.298569 -0.237453 46.756777
LeftLeg 20.344688 -0.000000 -0.000000
LeftFoot -9.934477 38.067598 -10.302913
LeftToeBase -10.108947 -0.000000 0.000000
RightUpLeg -133.221475 -53.998718 22.359900
RightLeg -7.600636 -0.000000 0.000000
RightFoot 36.958437 -23.878611 14.874449
RightToeBase 22.910730 -0.000000 -0.000000
1423
root 5.588565 34.718770 -4.440229 32.700281 -24.615717 -56.260719
Spine 4.273641 25.223357 38.341763
Head -4.841249 7.612995 9.662814
LeftShoulder -20.160378 23.762555 34.379870
LeftArm 77.707356 -81.212541 -66.805257
LeftForeArm 19.702721 -0.000000 28.978451
LeftHand 12.338048 -0.000000 22.371635
LeftHandThumb1 -26.253704 0.000000 33.147579
RightShoulder -6.769641 35.634532 -30.783563
RightArm 62.586428 78.090652 96.561958
RightForeArm 42.238918 0.000000 54.195219
RightHand 2.529889 -0.000000 28.612016
RightHandThumb1 -24.326973 -0.000000 -32.862282
LeftUpLeg -10.620259 0.850316 46.615417
LeftLeg 20.419868 -0.000000 -0.000000
LeftFoot -9.266457 38.279834 -9.850932
LeftToeBase -9.991095 -0.000000 0.000000
RightUpLeg -132.841815 -53.780465 22.118895
RightLeg -7.299144 -0.000000 0.000000
RightFoot 36.865331 -23.955686 14.951213
RightToeBase 22.779470 -0.000000 -0.000000
1424
root 5.627535 34.745023 -4.497048 32.904144 -24.706040 -56.344401
Spine 4.660420 25.256089 38.567831
Head -5.275691 7.778042 9.133081
LeftShoulder -20.192074 23.876813 34.233451
LeftArm 77.328843 -81.227724 -67.205880
LeftForeArm 19.626686 0.000000 28.868835
LeftHand 12.405423 -0.000000 22.263372
LeftHandThumb1 -26.253704 0.000000 33.147579
RightShoulder -6.671448 35.635681 -30.738523
RightArm 62.878460 78.236431 96.839699
RightForeArm 42.322323 -0.000000 53.903153
RightHand 2.601353 -0.000000 28.610536
RightHandThumb1 -24.326973 -0.000000 -32.862282
LeftUpLeg -10.918285 2.225718 46.407766
LeftLeg 20.338682 -0.000000 -0.000000
LeftFoot -8.518880 38.557468 -9.127246
LeftToeBase -9.628256 -0.000000 0.000000
RightUpLeg -132.526979 -53.530864 21.965041
RightLeg -7.019258 -0.000000 0.000000
RightFoot 36.912075 -24.000871 14.930040
RightToeBase 22.681146 -0.000000 -0.000000
1425
root 5.668303 34.771290 -4.553988 33.125170 -24.813572 -56.446739
Spine 5.051723 25.268926 38.821353
Head -5.678131 7.952731 8.545819
LeftShoulder -20.166811 23.956287 34.064514
LeftArm 75.700256 -81.305570 -66.301528
LeftForeArm 19.406823 -0.000000 28.652771
LeftHand 12.501161 -0.000000 22.197604
LeftHandThumb1 -26.253704 0.000000 33.147579
RightShoulder -6.534232 35.649885 -30.694255
RightArm 63.099321 78.396012 97.066970
RightForeArm 42.380581 -0.000000 53.605959
RightHand 2.709763 -0.000000 28.572176
RightHandThumb1 -24.326973 -0.000000 -32.862282
LeftUpLeg -11.171149 3.639482 46.150701
LeftLeg 20.095787 -0.000000 -0.000000
LeftFoot -7.723359 39.055624 -8.425797
LeftToeBase -9.390587 -0.000000 0.000000
RightUpLeg -132.189295 -53.270772 21.797305
RightLeg -6.719002 -0.000000 0.000000
RightFoot 36.953239 -23.969819 14.884453
RightToeBase 22.780853 -0.000000 -0.000000
1426
root 5.713135 34.797854 -4.612482 33.341055 -24.873401 -56.497573
Spine 5.391256 25.200924 39.050305
Head -6.065737 8.163170 7.912552
LeftShoulder -20.227499 24.144154 33.800100
LeftArm 75.531142 -81.371993 -66.786935
LeftForeArm 19.269782 0.000000 28.348127
LeftHand 12.471466 -0.000000 22.119936
LeftHandThumb1 -26.253704 0.000000 33.147579
RightShoulder -6.375318 35.695740 -30.645823
RightArm 63.274732 78.551502 97.263693
RightForeArm 42.453422 -0.000000 53.334576
RightHand 2.748516 -0.000000 28.398666
RightHandThumb1 -24.326973 -0.000000 -32.862282
LeftUpLeg -11.474720 5.079028 45.831416
LeftLeg 19.811175 -0.000000 -0.000000
LeftFoot -7.113501 39.496314 -7.974010
LeftToeBase -9.133268 -0.000000 0.000000
RightUpLeg -132.017960 -53.008187 21.781836
RightLeg -6.392004 -0.000000 0.000000
RightFoot 37.119243 -23.730965 14.771231
RightToeBase 22.607708 -0.000000 -0.000000
1427
root 5.759712 34.822588 -4.668267 33.533536 -24.945616 -56.519855
Spine 5.734918 25.083149 39.253887
Head -6.447529 8.370780 7.284156
LeftShoulder -20.304897 24.267230 33.585528
LeftArm 75.136746 -81.374846 -67.112532
LeftForeArm 19.144274 -0.000000 28.049781
LeftHand 12.539088 -0.000000 22.057230
LeftHandThumb1 -26.253704 0.000000 33.147579
RightShoulder -6.189579 35.769661 -30.577519
RightArm 63.408710 78.698676 97.435680
RightForeArm 42.582949 0.000000 53.080222
RightHand 2.786226 -0.000000 28.347890
RightHandThumb1 -24.326973 -0.000000 -32.862282
LeftUpLeg -11.726828 6.453385 45.436991
LeftLeg 19.379050 -0.000000 -0.000000
LeftFoot -6.392280 40.277882 -7.300577
LeftToeBase -8.622783 -0.000000 0.000000
RightUpLeg -131.808961 -52.787123 21.707597
RightLeg -6.054172 -0.000000 0.000000
RightFoot 37.208694 -23.586100 14.778143
RightToeBase 22.435456 -0.000000 -0.000000
1428
root 5.810652 34.847448 -4.723932 33.698704 -24.957510 -56.522549
Spine 6.080144 24.887965 39.514202
Head -6.874596 8.580234 6.534074
LeftShoulder -20.370844 24.443668 33.339794
LeftArm 74.992109 -81.407217 -67.781757
LeftForeArm 18.943788 -0.000000 27.834787
LeftHand 12.451116 -0.000000 21.909180
LeftHandThumb1 -26.253704 0.000000 33.147579
RightShoulder -6.005526 35.812218 -30.564864
RightArm 63.618308 78.856808 97.686433
RightForeArm 42.814068 -0.000000 52.804216
RightHand 2.826269 -0.000000 28.080493
RightHandThumb1 -24.326973 -0.000000 -32.862282
LeftUpLeg -11.973069 7.596766 45.049269
LeftLeg 18.858336 -0.000000 -0.000000
LeftFoot -5.746327 41.012310 -6.759445
LeftToeBase -8.184319 -0.000000 0.000000
RightUpLeg -131.669907 -52.588143 21.739037
RightLeg -5.698453 -0.000000 0.000000
RightFoot 37.328876 -23.416533 14.567939
RightToeBase 22.429428 -0.000000 -0.000000
1429
root 5.863737 34.869440 -4.782667 33.818785 -24.982794 -56.487976
Spine 6.472221 24.639930 39.756970
Head -7.324553 8.801818 5.739285
LeftShoulder -20.460103 24.606517 33.058983
LeftArm 74.966803 -81.429798 -68.487636
LeftForeArm 18.777603 -0.000000 27.429082
LeftHand 12.390491 -0.000000 22.125342
LeftHandThumb1 -26.253704 0.000000 33.147579
RightShoulder -5.849487 35.858410 -30.581494
RightArm 63.663352 78.943035 97.812701
RightForeArm 43.064200 -0.000000 52.558063
RightHand 2.995154 -0.000000 28.008820
RightHandThumb1 -24.326973 -0.000000 -32.862282
LeftUpLeg -12.166448 8.561978 44.639507
LeftLeg 18.312466 -0.000000 -0.000000
LeftFoot -5.190781 41.705577 -6.329986
LeftToeBase -7.994414 -0.000000 0.000000
RightUpLeg -131.505351 -52.415992 21.714102
RightLeg -5.334680 -0.000000 0.000000
RightFoot 37.494256 -23.372007 14.237166
RightToeBase 22.512233 -0.000000 -0.000000
1430
root 5.914620 34.887574 -4.836583 33.885863 -24.971315 -56.430816
Spine 6.865498 24.387884 40.017214
Head -7.802347 8.947397 4.934402
LeftShoulder -20.435528 24.705405 32.884422
LeftArm 74.060593 -81.448253 -68.413373
LeftForeArm 18.465801 -0.000000 27.061411
LeftHand 12.469261 -0.000000 22.073778
LeftHandThumb1 -26.253704 0.000000 33.147579
RightShoulder -5.719528 35.898264 -30.598930
RightArm 63.177437 79.028369 97.333281
RightForeArm 43.465468 -0.000000 52.281844
RightHand 3.253096 -0.000000 27.749689
RightHandThumb1 -24.326973 -0.000000 -32.862282
LeftUpLeg -12.307532 9.269457 44.261883
LeftLeg 17.742001 -0.000000 -0.000000
LeftFoot -4.797557 42.376280 -6.056532
LeftToeBase -7.674046 -0.000000 0.000000
RightUpLeg -131.425592 -52.257742 21.770013
RightLeg -4.903887 -0.000000 0.000000
RightFoot 37.624450 -23.281933 13.726335
RightToeBase 22.445333 -0.000000 -0.000000
1431
root 5.966684 34.899377 -4.885582 33.874613 -24.933160 -56.320164
Spine 7.286086 24.070904 40.266015
Head -8.353559 9.082528 4.109600
LeftShoulder -20.457629 24.765966 32.696157
LeftArm 73.406784 -81.410200 -68.531333
LeftForeArm 18.210925 -0.000000 26.613993
LeftHand 12.505382 -0.000000 21.828359
LeftHandThumb1 -26.253704 0.000000 33.147579
RightShoulder -5.615374 35.898764 -30.651645
RightArm 62.612040 79.129574 96.806498
RightForeArm 44.053724 -0.000000 52.021858
RightHand 3.625808 -0.000000 27.321223
RightHandThumb1 -24.326973 -0.000000 -32.862282
LeftUpLeg -12.362456 9.639452 43.918282
LeftLeg 17.117046 -0.000000 -0.000000
LeftFoot -4.513699 42.956080 -5.840986
LeftToeBase -7.136825 -0.000000 0.000000
RightUpLeg -131.379487 -52.160767 21.823957
RightLeg -4.397934 -0.000000 0.000000
RightFoot 37.645550 -23.121132 13.106320
RightToeBase 22.281273 -0.000000 -0.000000
